<mxfile host="app.diagrams.net" agent="Mozilla/5.0 (Macintosh; Intel Mac OS X 10_15_7) AppleWebKit/605.1.15 (KHTML, like Gecko) Version/18.6 Safari/605.1.15" version="28.2.8">
  <diagram name="Page-1" id="-cFBabvgw1gyEApec6DL">
    <mxGraphModel dx="830" dy="807" grid="1" gridSize="10" guides="1" tooltips="1" connect="1" arrows="1" fold="1" page="1" pageScale="1" pageWidth="850" pageHeight="1100" math="0" shadow="0">
      <root>
        <mxCell id="0" />
        <mxCell id="1" parent="0" />
        <mxCell id="BYa6IRWE-NaiIjBXu3CN-5" value="" style="shape=folder;fontStyle=1;spacingTop=10;tabWidth=40;tabHeight=14;tabPosition=left;html=1;whiteSpace=wrap;labelPosition=center;verticalLabelPosition=top;align=center;verticalAlign=bottom;" vertex="1" parent="1">
          <mxGeometry x="160" y="270" width="540" height="390" as="geometry" />
        </mxCell>
        <mxCell id="BYa6IRWE-NaiIjBXu3CN-7" value="Application" style="text;html=1;whiteSpace=wrap;strokeColor=none;fillColor=none;align=center;verticalAlign=middle;rounded=0;" vertex="1" parent="1">
          <mxGeometry x="410" y="280" width="60" height="30" as="geometry" />
        </mxCell>
        <mxCell id="BYa6IRWE-NaiIjBXu3CN-8" value="" style="shape=folder;fontStyle=1;spacingTop=10;tabWidth=40;tabHeight=14;tabPosition=left;html=1;whiteSpace=wrap;" vertex="1" parent="1">
          <mxGeometry x="190" y="310" width="240" height="240" as="geometry" />
        </mxCell>
        <mxCell id="BYa6IRWE-NaiIjBXu3CN-9" value="" style="shape=folder;fontStyle=1;spacingTop=10;tabWidth=40;tabHeight=14;tabPosition=left;html=1;whiteSpace=wrap;" vertex="1" parent="1">
          <mxGeometry x="490" y="360" width="180" height="170" as="geometry" />
        </mxCell>
        <mxCell id="BYa6IRWE-NaiIjBXu3CN-10" value="" style="shape=folder;fontStyle=1;spacingTop=10;tabWidth=40;tabHeight=14;tabPosition=left;html=1;whiteSpace=wrap;" vertex="1" parent="1">
          <mxGeometry x="190" y="590" width="220" height="40" as="geometry" />
        </mxCell>
        <mxCell id="BYa6IRWE-NaiIjBXu3CN-11" value="main" style="text;html=1;whiteSpace=wrap;strokeColor=none;fillColor=none;align=center;verticalAlign=middle;rounded=0;" vertex="1" parent="1">
          <mxGeometry x="280" y="320" width="60" height="30" as="geometry" />
        </mxCell>
        <mxCell id="BYa6IRWE-NaiIjBXu3CN-12" value="renderer" style="text;html=1;whiteSpace=wrap;strokeColor=none;fillColor=none;align=center;verticalAlign=middle;rounded=0;" vertex="1" parent="1">
          <mxGeometry x="550" y="370" width="60" height="30" as="geometry" />
        </mxCell>
        <mxCell id="BYa6IRWE-NaiIjBXu3CN-13" value="resources" style="text;html=1;whiteSpace=wrap;strokeColor=none;fillColor=none;align=center;verticalAlign=middle;rounded=0;" vertex="1" parent="1">
          <mxGeometry x="270" y="600" width="60" height="30" as="geometry" />
        </mxCell>
        <mxCell id="BYa6IRWE-NaiIjBXu3CN-14" value="core" style="shape=folder;fontStyle=1;spacingTop=10;tabWidth=40;tabHeight=14;tabPosition=left;html=1;whiteSpace=wrap;" vertex="1" parent="1">
          <mxGeometry x="210" y="370" width="70" height="50" as="geometry" />
        </mxCell>
        <mxCell id="BYa6IRWE-NaiIjBXu3CN-16" value="handlers" style="shape=folder;fontStyle=1;spacingTop=10;tabWidth=40;tabHeight=14;tabPosition=left;html=1;whiteSpace=wrap;" vertex="1" parent="1">
          <mxGeometry x="320" y="370" width="70" height="50" as="geometry" />
        </mxCell>
        <mxCell id="BYa6IRWE-NaiIjBXu3CN-17" value="ipc" style="shape=folder;fontStyle=1;spacingTop=10;tabWidth=40;tabHeight=14;tabPosition=left;html=1;whiteSpace=wrap;" vertex="1" parent="1">
          <mxGeometry x="210" y="450" width="70" height="50" as="geometry" />
        </mxCell>
        <mxCell id="BYa6IRWE-NaiIjBXu3CN-18" value="utils" style="shape=folder;fontStyle=1;spacingTop=10;tabWidth=40;tabHeight=14;tabPosition=left;html=1;whiteSpace=wrap;" vertex="1" parent="1">
          <mxGeometry x="320" y="450" width="70" height="50" as="geometry" />
        </mxCell>
        <mxCell id="BYa6IRWE-NaiIjBXu3CN-19" value="css" style="shape=folder;fontStyle=1;spacingTop=10;tabWidth=40;tabHeight=14;tabPosition=left;html=1;whiteSpace=wrap;" vertex="1" parent="1">
          <mxGeometry x="500" y="410" width="70" height="50" as="geometry" />
        </mxCell>
        <mxCell id="BYa6IRWE-NaiIjBXu3CN-20" value="js" style="shape=folder;fontStyle=1;spacingTop=10;tabWidth=40;tabHeight=14;tabPosition=left;html=1;whiteSpace=wrap;" vertex="1" parent="1">
          <mxGeometry x="590" y="410" width="70" height="50" as="geometry" />
        </mxCell>
        <mxCell id="BYa6IRWE-NaiIjBXu3CN-21" value="pages" style="shape=folder;fontStyle=1;spacingTop=10;tabWidth=40;tabHeight=14;tabPosition=left;html=1;whiteSpace=wrap;" vertex="1" parent="1">
          <mxGeometry x="500" y="470" width="160" height="50" as="geometry" />
        </mxCell>
      </root>
    </mxGraphModel>
  </diagram>
</mxfile>
